<?xml version="1.0" encoding="iso-8859-1"?>
<!-- Generator: Adobe Illustrator 19.0.0, SVG Export Plug-In . SVG Version: 6.00 Build 0)  -->
<svg version="1.1" id="Capa_1" xmlns="http://www.w3.org/2000/svg" xmlns:xlink="http://www.w3.org/1999/xlink" x="0px" y="0px"
	 viewBox="0 0 512 512" style="enable-background:new 0 0 512 512;" xml:space="preserve">
<g>
	<g>
		<path d="M502,374h-10v-36c0-5.523-4.478-10-10-10c-5.522,0-10,4.477-10,10v36H40V96c0-12.131,9.869-22,22-22h388
			c12.131,0,22,9.869,22,22v146c0,5.523,4.478,10,10,10c5.522,0,10-4.477,10-10V96c0-23.159-18.841-42-42-42H62
			c-23.159,0-42,18.841-42,42v278H10c-5.522,0-10,4.477-10,10v22c0,28.673,23.327,52,52,52h408c28.673,0,52-23.327,52-52v-22
			C512,378.477,507.522,374,502,374z M492,406c0,17.645-14.355,32-32,32H52c-17.645,0-32-14.355-32-32v-12h472V406z"/>
	</g>
</g>
<g>
	<g>
		<path d="M489.069,287.93C487.21,286.07,484.63,285,482,285s-5.21,1.07-7.07,2.93c-1.86,1.86-2.93,4.44-2.93,7.07
			s1.069,5.21,2.93,7.07c1.861,1.86,4.44,2.93,7.07,2.93s5.21-1.07,7.069-2.93c1.86-1.86,2.931-4.44,2.931-7.07
			S490.93,289.79,489.069,287.93z"/>
	</g>
</g>
<g>
	<g>
		<path d="M289.667,406h-67.334c-5.522,0-10,4.477-10,10s4.478,10,10,10h67.334c5.522,0,10-4.477,10-10S295.189,406,289.667,406z"/>
	</g>
</g>
<g>
	<g>
		<path d="M434,118H284c-5.522,0-10,4.477-10,10v192c0,5.523,4.478,10,10,10h150c5.522,0,10-4.477,10-10V128
			C444,122.477,439.522,118,434,118z M413.499,138L359,207.758L304.502,138H413.499z M294,157.043L346.311,224L294,290.957V157.043z
			 M304.502,310L359,240.242L413.498,310H304.502z M424,290.957L371.689,224L424,157.043V290.957z"/>
	</g>
</g>
<g>
	<g>
		<path d="M189.667,166h-73.334c-5.522,0-10,4.477-10,10s4.478,10,10,10h73.334c5.522,0,10-4.477,10-10S195.189,166,189.667,166z"/>
	</g>
</g>
<g>
	<g>
		<path d="M189.667,214h-73.334c-5.522,0-10,4.477-10,10s4.478,10,10,10h73.334c5.522,0,10-4.477,10-10S195.189,214,189.667,214z"/>
	</g>
</g>
<g>
	<g>
		<path d="M189.667,262h-73.334c-5.522,0-10,4.477-10,10s4.478,10,10,10h73.334c5.522,0,10-4.477,10-10S195.189,262,189.667,262z"/>
	</g>
</g>
<g>
	<g>
		<path d="M164.069,312.93C162.21,311.07,159.63,310,157,310s-5.21,1.07-7.07,2.93S147,317.37,147,320s1.069,5.21,2.93,7.07
			c1.861,1.86,4.44,2.93,7.07,2.93s5.21-1.07,7.069-2.93c1.86-1.86,2.931-4.44,2.931-7.07S165.93,314.79,164.069,312.93z"/>
	</g>
</g>
<g>
	<g>
		<path d="M228,118H78c-5.522,0-10,4.477-10,10v192c0,5.523,4.478,10,10,10h31c5.522,0,10-4.477,10-10s-4.478-10-10-10H88V138h130
			v172h-17c-5.522,0-10,4.477-10,10s4.478,10,10,10h27c5.522,0,10-4.477,10-10V128C238,122.477,233.522,118,228,118z"/>
	</g>
</g>
<g>
</g>
<g>
</g>
<g>
</g>
<g>
</g>
<g>
</g>
<g>
</g>
<g>
</g>
<g>
</g>
<g>
</g>
<g>
</g>
<g>
</g>
<g>
</g>
<g>
</g>
<g>
</g>
<g>
</g>
</svg>
